<svg width="80" height="80" viewBox="0 0 80 80" fill="none" xmlns="http://www.w3.org/2000/svg">
<path d="M80 40C80 62.0914 62.0914 80 40 80C17.9086 80 0 62.0914 0 40C0 17.9086 17.9086 0 40 0C62.0914 0 80 17.9086 80 40Z" fill="url(#paint0_linear_6_16)"/>
<path d="M41.9163 40.5016L54.5874 28.2571C55.1193 27.7431 55.1193 26.9127 54.5874 26.3987C54.0555 25.8847 53.1962 25.8847 52.6642 26.3987L39.9932 38.6432L27.3221 26.3855C26.7902 25.8715 25.9309 25.8715 25.399 26.3855C24.867 26.8996 24.867 27.7299 25.399 28.2439L38.07 40.5016L25.399 52.7462C24.867 53.2602 24.867 54.0906 25.399 54.6046C25.6581 54.8682 25.9991 55 26.3537 55C26.7083 55 27.0493 54.8682 27.3221 54.6178L39.9932 42.3601L52.6642 54.6046C52.937 54.8682 53.278 55 53.6326 55C53.9873 55 54.3283 54.8682 54.601 54.6178C55.133 54.1037 55.133 53.2734 54.601 52.7593L41.9163 40.5016Z" fill="white"/>
<defs>
<linearGradient id="paint0_linear_6_16" x1="75.9603" y1="-0.88929" x2="-12.9871" y2="40.4801" gradientUnits="userSpaceOnUse">
<stop stop-color="#EA8B03"/>
<stop offset="0.0001" stop-color="#53029F"/>
</linearGradient>
</defs>
</svg>
